<?xml version="1.0" encoding="iso-8859-1"?>
<!-- Generator: Adobe Illustrator 19.0.0, SVG Export Plug-In . SVG Version: 6.00 Build 0)  -->
<svg version="1.1" id="Capa_1" xmlns="http://www.w3.org/2000/svg" xmlns:xlink="http://www.w3.org/1999/xlink" x="0px" y="0px"
	 viewBox="0 0 511.999 511.999" style="enable-background:new 0 0 511.999 511.999;" xml:space="preserve">
<g>
	<g>
		<path d="M469.402,201.36c-13.982,0-15.291-0.261-19.11,1.007c-2.187-13.919-5.847-27.354-10.812-40.144
			c3.944-0.799,5.011-1.72,17.103-8.702c9.336-5.39,12.528-17.304,7.138-26.64l-12.042-20.859
			c-5.372-9.303-17.309-12.524-26.64-7.137l-11.218,6.476c-1.92,1.108-3.59,2.521-4.999,4.15
			c-8.775-10.796-18.673-20.64-29.517-29.359c3.237-2.756,3.756-4.242,10.711-16.289c5.376-9.313,2.174-21.262-7.138-26.639
			c-22.536-13.012-24.035-14.658-30.598-14.658c-6.951,0-13.427,3.737-16.899,9.753c-6.96,12.055-8,13.254-8.77,17.527
			c-12.843-4.919-26.326-8.536-40.293-10.661c0.777-2.102,1.223-4.364,1.223-6.733V19.501C287.542,8.749,278.793,0,268.041,0
			h-24.085c-10.753,0-19.501,8.749-19.501,19.501c0,13.835-0.337,15.627,1.305,19.906c-13.97,2.227-27.454,5.931-40.281,10.956
			c-0.361-2.374-1.151-4.685-2.388-6.826l-6.475-11.216c-5.361-9.288-17.294-12.534-26.64-7.138l-20.857,12.043
			c-4.511,2.604-7.737,6.809-9.087,11.841c-2.543,9.493,1.992,14.874,8.424,26.014c1.284,2.224,2.979,4.133,4.956,5.66
			c-10.85,8.81-20.741,18.753-29.495,29.651c-2.946-3.849-5.019-4.612-16.959-11.505c-2.962-1.71-6.33-2.615-9.739-2.615
			c-6.95,0-13.427,3.736-16.9,9.753l-12.042,20.857c-5.389,9.336-2.198,21.25,7.138,26.64l11.217,6.476
			c2.238,1.292,4.707,2.122,7.251,2.451c-4.98,12.88-8.645,26.408-10.81,40.426c-4.517-1.897-6.709-1.513-20.477-1.514
			c-10.753,0-19.501,8.747-19.501,19.501v24.084c0,10.753,8.749,19.501,19.501,19.501c13.732,0,15.96,0.386,20.478-1.503
			c2.165,14.015,5.829,27.54,10.808,40.415c-4.832,0.626-6.474,2.003-18.466,8.928c-9.338,5.388-12.529,17.306-7.139,26.639
			l12.042,20.857c3.472,6.017,9.948,9.754,16.9,9.754c6.399,0,9.08-2.233,20.954-9.091c2.263-1.306,4.202-3.015,5.743-5.029
			c8.754,10.897,18.645,20.84,29.495,29.65c-3.837,2.965-4.566,4.986-11.431,16.876c-2.604,4.511-3.296,9.767-1.948,14.798
			c1.348,5.031,4.574,9.237,9.086,11.841c22.536,13.012,24.035,14.658,30.598,14.658c6.95,0,13.426-3.736,16.9-9.754
			c6.911-11.973,8.166-13.453,8.863-18.042c4.366,1.71,8.807,3.27,13.318,4.669l-13.763,51.365h-29.922
			c-10.597,0-19.217,8.62-19.217,19.216v2.088c0,10.597,8.621,19.217,19.217,19.217h37.635c4.143,0,7.5-3.357,7.5-7.5
			s-3.357-7.5-7.5-7.5h-37.635c-2.324,0-4.216-1.892-4.216-4.216v-2.088c0-2.324,1.892-4.215,4.216-4.215
			c7.277,0,183.021,0,201.777,0c2.324,0,4.216,1.891,4.216,4.215v2.088c0,2.324-1.892,4.216-4.216,4.216H218.744
			c-4.143,0-7.5,3.357-7.5,7.5s3.357,7.5,7.5,7.5h138.144c10.597,0,19.217-8.62,19.217-19.217v-2.088
			c0-10.596-8.62-19.216-19.217-19.216h-28.475l-13.763-51.365c4.047-1.255,8.033-2.647,11.964-4.153
			c0.77,4.275,1.813,5.477,8.771,17.528c3.474,6.015,9.949,9.751,16.898,9.751c6.565,0,8.066-1.648,30.599-14.657
			c9.312-5.376,12.513-17.326,7.137-26.64c-6.955-12.046-7.474-13.532-10.711-16.287c10.844-8.719,20.742-18.564,29.517-29.36
			c2.753,3.183,4.146,3.659,16.215,10.626c9.439,5.45,21.332,2.052,26.64-7.138l12.041-20.857c5.391-9.333,2.199-21.25-7.137-26.64
			c-12.034-6.948-13.159-7.902-17.102-8.701c4.964-12.793,8.626-26.23,10.813-40.151c3.817,1.276,5.132,1.013,19.109,1.013
			c10.753-0.002,19.5-8.751,19.5-19.502v-24.084C488.903,210.108,480.155,201.36,469.402,201.36z M58.73,248.128
			c-1.705,1.706-2.145,1.318-16.133,1.318c-2.481,0-4.5-2.019-4.5-4.5v-24.084c0-2.482,2.019-4.5,4.5-4.5h12.952
			c2.481,0,4.499,2.019,4.499,4.499C60.047,247.007,60.486,246.372,58.73,248.128z M421.323,118.352
			c12.163-7.021,11.869-7.081,13.457-7.081c1.633,0,3.094,0.842,3.908,2.252c12.952,22.435,13.135,21.87,12.492,24.272
			c-0.625,2.33-1.207,2.219-13.313,9.209c-1.801,1.04-3.981,0.691-5.39-0.678c-4.255-8.603-8.577-15.877-13.185-22.711
			C418.647,121.606,419.478,119.416,421.323,118.352z M416.637,149.236c12.571,21.775,20.312,50.659,20.312,76.165h-14.903
			c-0.391-8.758-1.457-17.47-3.2-25.99c-0.83-4.058-4.786-6.679-8.853-5.844c-4.058,0.83-6.674,4.793-5.844,8.852
			c1.542,7.534,2.506,15.236,2.886,22.982l-122.322,0.001l106.025-61.214c2.146,4.223,4.132,8.561,5.905,13.035
			c1.526,3.852,5.888,5.732,9.736,4.21c3.852-1.526,5.735-5.885,4.21-9.737c-2.036-5.139-4.337-10.14-6.851-15.013L416.637,149.236z
			 M264.224,204.912V81.926c21.897,1.163,42.743,6.938,61.43,16.587L264.224,204.912z M338.617,106.059
			c17.747,11.547,33.032,26.827,44.698,45.095L277.216,212.41L338.617,106.059z M270.441,232.901
			c0,7.565-6.154,13.719-13.718,13.719c-7.563,0-13.718-6.154-13.718-13.719s6.153-13.718,13.718-13.718
			S270.441,225.337,270.441,232.901z M288.531,380.592c-7.892,1.738-16.011,2.862-24.307,3.309v-94.026L288.531,380.592z
			 M249.223,289.878v94.091c-8.32-0.369-16.466-1.411-24.386-3.076L249.223,289.878z M249.223,204.912L187.546,98.084
			c18.668-9.517,39.562-15.263,61.677-16.244V204.912z M236.231,212.41l-107.041-61.8c11.746-18.038,27.226-33.431,45.345-45.062
			L236.231,212.41z M228.731,225.403H104.963c1.09-22.194,6.988-43.145,16.671-61.833L228.731,225.403z M228.731,240.404
			l-107.099,61.834c-9.682-18.689-15.581-39.639-16.67-61.834H228.731z M236.229,253.396l-61.696,106.862
			c-18.119-11.631-33.599-27.025-45.345-45.063L236.229,253.396z M234.737,285.983l-24.408,91.091
			c-7.893-2.506-15.508-5.64-22.784-9.35L234.737,285.983z M220.949,395.398c9.169,1.976,18.616,3.192,28.274,3.581v14.708
			c-10.96-0.449-21.671-1.875-32.049-4.198L220.949,395.398z M239.456,433.355c0-2.481,2.019-4.5,4.5-4.5h24.085
			c2.481,0,4.5,2.019,4.5,4.5v12.951c0,2.481-2.019,4.5-4.5,4.5h-24.085c-2.481,0-4.5-2.019-4.5-4.5V433.355z M264.224,413.687
			v-14.763c9.636-0.472,19.054-1.774,28.195-3.825l3.855,14.389C285.895,411.812,275.184,413.237,264.224,413.687z M278.711,285.987
			l46.856,81.159c-7.203,3.748-14.745,6.93-22.565,9.494L278.711,285.987z M277.215,253.394L383.21,314.59
			c-11.566,17.949-26.827,33.298-44.696,44.978L277.215,253.394z M284.716,240.404l122.319-0.001
			c-1.076,21.94-6.849,42.667-16.334,61.192L284.716,240.404z M409.137,136.245l-12.861,7.425
			c-12.798-20.115-29.824-37.317-50.22-50.496l7.455-12.915C369.967,89.76,395.026,111.8,409.137,136.245z M348.374,39.819
			c0.802-1.389,2.3-2.252,3.908-2.252c1.642,0,0.475-0.414,23.097,12.648c2.149,1.241,2.888,3.999,1.647,6.148
			c-6.552,11.348-7.61,15.757-13.23,12.513C337.885,51.903,336.564,60.277,348.374,39.819z M340.522,72.759l-7.419,12.85
			c-21.272-11.168-44.666-17.544-68.879-18.722V52.121C293.244,53.31,321.983,62.056,340.522,72.759z M239.456,19.501
			c0-2.481,2.019-4.5,4.5-4.5h24.085c2.481,0,4.5,2.019,4.5,4.5v12.951c0,2.481-2.019,4.5-4.5,4.5h-24.085
			c-2.481,0-4.5-2.019-4.5-4.5V19.501z M249.223,52.121V66.83c-24.841,1.001-48.295,7.47-69.185,18.249l-7.197-12.467
			C195.845,60.524,221.752,53.247,249.223,52.121z M136.619,50.215c22.66-13.084,21.464-12.647,23.097-12.647
			c3.328,0,3.646,1.798,10.384,13.469c1.244,2.152,0.508,4.902-1.646,6.146l-20.857,12.042c-0.695,0.401-1.449,0.605-2.239,0.605
			c-3.352,0-3.63-1.77-10.385-13.468C133.732,54.213,134.47,51.456,136.619,50.215z M159.858,80.129l7.173,12.425
			c-20.383,12.967-37.766,30.246-50.851,50.546l-12.231-7.061C118.254,113.558,137.378,94.433,159.858,80.129z M108.636,156.065
			c-10.947,20.908-17.572,44.416-18.684,69.337h-14.01c1.126-27.47,8.402-53.377,20.49-76.383L108.636,156.065z M60.818,137.796
			c-0.311-1.161-0.151-2.373,0.45-3.415l12.042-20.857c1.206-2.091,3.937-2.924,6.147-1.648c12.097,6.984,12.688,6.878,13.314,9.209
			c0.642,2.401,0.579,1.631-12.492,24.272c-1.204,2.087-3.934,2.926-6.147,1.648C62.035,140.02,61.444,140.126,60.818,137.796z
			 M90.674,347.456c-12.159,7.02-11.865,7.08-13.455,7.08c-1.608,0-3.106-0.862-3.908-2.252
			c-12.979-22.481-13.135-21.868-12.492-24.273c0.312-1.161,1.056-2.131,2.098-2.732c12.178-7.031,11.868-7.08,13.454-7.08
			c1.609,0,3.107,0.863,3.909,2.252l12.042,20.859C93.563,343.456,92.835,346.208,90.674,347.456z M96.431,316.786
			c-12.088-23.005-19.364-48.912-20.489-76.383h14.01c1.112,24.922,7.737,48.429,18.683,69.337L96.431,316.786z M103.949,329.768
			l12.231-7.061c13.084,20.301,30.468,37.58,50.851,50.548l-7.172,12.424C137.377,371.374,118.253,352.249,103.949,329.768z
			 M170.1,414.771c-6.669,11.555-7.008,13.469-10.385,13.469c-0.79,0-1.543-0.204-2.238-0.605
			c-22.643-13.074-22.313-12.377-22.954-14.774c-0.626-2.332-0.062-2.53,6.926-14.633c1.206-2.091,3.937-2.92,6.146-1.646
			l20.858,12.045c1.041,0.601,1.785,1.57,2.097,2.73C170.861,412.517,170.701,413.729,170.1,414.771z M172.839,393.196l7.197-12.466
			c8.411,4.34,17.238,7.984,26.406,10.854l-3.758,14.027C192.302,402.355,182.326,398.18,172.839,393.196z M200.563,471.479
			l12.724-47.484c4.11,0.934,8.271,1.735,12.474,2.405c-1.642,4.278-1.305,6.065-1.305,19.906c0,10.753,8.749,19.501,19.501,19.501
			h24.085c10.753,0,19.501-8.749,19.501-19.501c0-13.905,0.314-15.527-1.223-19.684c4.67-0.711,9.285-1.592,13.841-2.627
			l12.724,47.484H200.563z M310.763,405.61l-3.874-14.46c9.093-2.931,17.844-6.624,26.182-11.007l7.45,12.905
			C331.957,397.993,320.274,402.627,310.763,405.61z M375.38,415.591c-22.678,13.094-21.467,12.648-23.098,12.648
			c-1.608,0-3.106-0.863-3.908-2.251c-11.902-20.619-10.289-12.215,15.427-29.059c5.671-3.274,6.761,1.318,13.227,12.514
			C378.267,411.592,377.529,414.351,375.38,415.591z M353.513,385.547l-7.488-12.971c20.131-13.02,37.282-30.268,50.186-50.481
			l12.928,7.464C396.436,351.563,372.42,374.631,353.513,385.547z M403.702,309.1c10.747-20.747,17.244-44.031,18.345-68.697h14.903
			c0,4.943-0.041,5.261,0.155,6.885c-1.84,23.268-8.526,48.598-20.466,69.281L403.702,309.1z M451.181,328.011
			c0.642,2.401,0.579,1.632-12.492,24.273c-0.802,1.389-2.3,2.252-3.908,2.252c-1.589,0-1.303-0.064-13.455-7.079
			c-1.863-1.076-2.661-3.29-2.034-5.261c5.118-7.589,9.335-14.926,13.188-22.715c1.404-1.365,3.582-1.719,5.387-0.678
			C449.973,325.792,450.555,325.681,451.181,328.011z M469.401,249.447h-12.95c-1.979,0-3.645-1.293-4.246-3.071
			c0.606-8.88,0.651-17.409-0.001-26.951c0.657-1.951,2.408-3.064,4.246-3.064h12.952c2.481,0,4.5,2.018,4.5,4.5v24.084h0
			C473.902,247.427,471.882,249.447,469.401,249.447z"/>
	</g>
</g>
<g>
</g>
<g>
</g>
<g>
</g>
<g>
</g>
<g>
</g>
<g>
</g>
<g>
</g>
<g>
</g>
<g>
</g>
<g>
</g>
<g>
</g>
<g>
</g>
<g>
</g>
<g>
</g>
<g>
</g>
</svg>
